<svg xmlns="http://www.w3.org/2000/svg" viewBox="0 0 295.2 414.93"><defs><style>.cls-1{opacity:0;}.cls-2{fill:#231f20;}.cls-3{opacity:0.06;}.cls-4{fill:#363031;}.cls-5{opacity:0.13;}.cls-6{fill:#473d3d;}.cls-7{opacity:0.19;}.cls-8{fill:#554646;}.cls-9{opacity:0.25;}.cls-10{fill:#624d4d;}.cls-11{opacity:0.31;}.cls-12{fill:#6e5252;}.cls-13{opacity:0.38;}.cls-14{fill:#7a5556;}.cls-15{opacity:0.44;}.cls-16{fill:#855758;}.cls-17{opacity:0.5;}.cls-18{fill:#90585a;}.cls-19{opacity:0.56;}.cls-20{fill:#9b585b;}.cls-21{opacity:0.63;}.cls-22{fill:#a6575b;}.cls-23{opacity:0.69;}.cls-24{fill:#b2545b;}.cls-25{opacity:0.75;}.cls-26{fill:#be4f5a;}.cls-27{opacity:0.81;}.cls-28{fill:#c94859;}.cls-29{opacity:0.88;}.cls-30{fill:#d43e57;}.cls-31{opacity:0.94;}.cls-32{fill:#df2f55;}.cls-33{fill:#ed1654;}</style></defs><g id="Layer_2" data-name="Layer 2"><g id="Layer_1-2" data-name="Layer 1"><g class="cls-1"><polygon class="cls-2" points="189.63 94.93 166.53 134.93 143.44 94.93 120.35 134.93 97.25 174.93 74.16 214.93 51.06 254.93 4.88 254.93 27.97 214.94 27.97 214.93 51.06 174.93 74.16 134.93 97.25 94.93 120.35 54.93 143.44 14.93 166.53 54.93 189.63 94.93"/><polygon class="cls-2" points="179.72 374.93 179.72 374.94 156.63 414.93 64.25 414.93 87.34 374.93 133.53 374.93 133.54 374.94 133.54 374.93 179.72 374.93"/><polygon class="cls-2" points="202.82 254.94 179.73 294.93 133.53 294.93 156.62 254.93 202.81 254.93 202.82 254.94"/><polygon class="cls-2" points="189.62 174.93 143.44 254.93 120.34 294.93 97.25 334.93 74.16 374.93 51.06 414.93 4.88 414.93 51.06 334.93 74.16 294.93 97.25 254.93 120.34 214.93 27.97 214.93 4.88 174.93 189.62 174.93"/><polygon class="cls-2" points="295.2 174.93 272.1 214.93 179.72 214.93 202.81 174.93 295.2 174.93"/></g><g class="cls-3"><polygon class="cls-2" points="189.32 94 166.22 134 143.13 94 120.04 134 96.94 174 73.85 214 50.75 254 4.57 254 27.66 214.01 27.66 214 50.75 174 73.85 134 96.94 94 120.04 54 143.13 14 166.22 54 189.32 94"/><polygon class="cls-2" points="179.42 374 179.42 374.01 156.33 414 63.95 414 87.04 374 133.23 374 133.24 374.01 133.24 374 179.42 374"/><polygon class="cls-2" points="202.52 254.01 179.43 294 133.23 294 156.32 254 202.51 254 202.52 254.01"/><polygon class="cls-4" points="189.32 174 143.14 254 120.04 294 96.95 334 73.86 374 50.76 414 4.58 414 50.76 334 73.86 294 96.95 254 120.04 214 27.67 214 4.58 174 189.32 174"/><polygon class="cls-2" points="294.9 174 271.8 214 179.42 214 202.51 174 294.9 174"/></g><g class="cls-5"><polygon class="cls-2" points="189.02 93.06 165.92 133.06 142.83 93.06 119.74 133.06 96.64 173.06 73.55 213.06 50.45 253.06 4.27 253.06 27.36 213.07 27.36 213.06 50.45 173.06 73.55 133.06 96.64 93.06 119.74 53.06 142.83 13.06 165.92 53.06 189.02 93.06"/><polygon class="cls-2" points="179.11 373.06 179.11 373.07 156.02 413.06 63.64 413.06 86.73 373.06 132.92 373.06 132.93 373.07 132.93 373.06 179.11 373.06"/><polygon class="cls-2" points="202.21 253.07 179.12 293.06 132.92 293.06 156.01 253.06 202.2 253.06 202.21 253.07"/><polygon class="cls-6" points="189.01 173.06 142.83 253.06 119.73 293.06 96.64 333.06 73.55 373.06 50.45 413.06 4.27 413.06 50.45 333.06 73.55 293.06 96.64 253.06 119.73 213.06 27.36 213.06 4.27 173.06 189.01 173.06"/><polygon class="cls-2" points="294.59 173.06 271.49 213.06 179.11 213.06 202.2 173.06 294.59 173.06"/></g><g class="cls-7"><polygon class="cls-2" points="188.71 92.13 165.61 132.13 142.52 92.13 119.43 132.13 96.33 172.13 73.24 212.13 50.14 252.13 3.96 252.13 27.05 212.14 27.05 212.13 50.14 172.13 73.24 132.13 96.33 92.13 119.43 52.13 142.52 12.13 165.61 52.13 188.71 92.13"/><polygon class="cls-2" points="178.81 372.13 178.81 372.14 155.72 412.13 63.34 412.13 86.43 372.13 132.62 372.13 132.63 372.14 132.63 372.13 178.81 372.13"/><polygon class="cls-2" points="201.91 252.14 178.82 292.13 132.62 292.13 155.71 252.13 201.9 252.13 201.91 252.14"/><polygon class="cls-8" points="188.71 172.13 142.53 252.13 119.43 292.13 96.34 332.13 73.25 372.13 50.15 412.13 3.97 412.13 50.15 332.13 73.25 292.13 96.34 252.13 119.43 212.13 27.06 212.13 3.97 172.13 188.71 172.13"/><polygon class="cls-2" points="294.29 172.13 271.19 212.13 178.81 212.13 201.9 172.13 294.29 172.13"/></g><g class="cls-9"><polygon class="cls-2" points="188.41 91.2 165.31 131.2 142.22 91.2 119.13 131.2 96.03 171.2 72.94 211.2 49.84 251.2 3.66 251.2 26.75 211.21 26.75 211.2 49.84 171.2 72.94 131.2 96.03 91.2 119.13 51.2 142.22 11.2 165.31 51.2 188.41 91.2"/><polygon class="cls-2" points="178.5 371.2 178.5 371.21 155.41 411.2 63.03 411.2 86.12 371.2 132.31 371.2 132.32 371.21 132.32 371.2 178.5 371.2"/><polygon class="cls-2" points="201.6 251.21 178.51 291.2 132.31 291.2 155.4 251.2 201.59 251.2 201.6 251.21"/><polygon class="cls-10" points="188.4 171.2 142.22 251.2 119.12 291.2 96.03 331.2 72.94 371.2 49.84 411.2 3.66 411.2 49.84 331.2 72.94 291.2 96.03 251.2 119.12 211.2 26.75 211.2 3.66 171.2 188.4 171.2"/><polygon class="cls-2" points="293.98 171.2 270.88 211.2 178.5 211.2 201.59 171.2 293.98 171.2"/></g><g class="cls-11"><polygon class="cls-2" points="188.1 90.27 165 130.26 141.91 90.27 118.82 130.26 95.72 170.26 72.63 210.26 49.53 250.26 3.35 250.26 26.44 210.28 26.44 210.26 49.53 170.26 72.63 130.26 95.72 90.27 118.82 50.27 141.91 10.27 165 50.27 188.1 90.27"/><polygon class="cls-2" points="178.2 370.26 178.2 370.27 155.11 410.26 62.73 410.26 85.82 370.26 132.01 370.26 132.02 370.27 132.02 370.26 178.2 370.26"/><polygon class="cls-2" points="201.3 250.28 178.21 290.26 132.01 290.26 155.1 250.26 201.29 250.26 201.3 250.28"/><polygon class="cls-12" points="188.1 170.26 141.92 250.26 118.82 290.26 95.73 330.26 72.64 370.26 49.54 410.26 3.36 410.26 49.54 330.26 72.64 290.26 95.73 250.26 118.82 210.26 26.45 210.26 3.36 170.26 188.1 170.26"/><polygon class="cls-2" points="293.68 170.26 270.58 210.26 178.2 210.26 201.29 170.26 293.68 170.26"/></g><g class="cls-13"><polygon class="cls-2" points="187.8 89.33 164.7 129.33 141.61 89.33 118.52 129.33 95.42 169.33 72.33 209.33 49.23 249.33 3.05 249.33 26.14 209.34 26.14 209.33 49.23 169.33 72.33 129.33 95.42 89.33 118.52 49.33 141.61 9.33 164.7 49.33 187.8 89.33"/><polygon class="cls-2" points="177.89 369.33 177.89 369.34 154.8 409.33 62.42 409.33 85.51 369.33 131.7 369.33 131.71 369.34 131.71 369.33 177.89 369.33"/><polygon class="cls-2" points="200.99 249.34 177.9 289.33 131.7 289.33 154.79 249.33 200.98 249.33 200.99 249.34"/><polygon class="cls-14" points="187.79 169.33 141.61 249.33 118.51 289.33 95.42 329.33 72.33 369.33 49.23 409.33 3.05 409.33 49.23 329.33 72.33 289.33 95.42 249.33 118.51 209.33 26.14 209.33 3.05 169.33 187.79 169.33"/><polygon class="cls-2" points="293.37 169.33 270.27 209.33 177.89 209.33 200.98 169.33 293.37 169.33"/></g><g class="cls-15"><polygon class="cls-2" points="187.49 88.4 164.39 128.4 141.3 88.4 118.21 128.4 95.11 168.4 72.02 208.4 48.92 248.4 2.74 248.4 25.83 208.41 25.83 208.4 48.92 168.4 72.02 128.4 95.11 88.4 118.21 48.4 141.3 8.4 164.39 48.4 187.49 88.4"/><polygon class="cls-2" points="177.59 368.4 177.59 368.41 154.5 408.4 62.12 408.4 85.21 368.4 131.4 368.4 131.41 368.41 131.41 368.4 177.59 368.4"/><polygon class="cls-2" points="200.69 248.41 177.6 288.4 131.4 288.4 154.49 248.4 200.68 248.4 200.69 248.41"/><polygon class="cls-16" points="187.49 168.4 141.31 248.4 118.21 288.4 95.12 328.4 72.03 368.4 48.93 408.4 2.75 408.4 48.93 328.4 72.03 288.4 95.12 248.4 118.21 208.4 25.84 208.4 2.75 168.4 187.49 168.4"/><polygon class="cls-2" points="293.07 168.4 269.97 208.4 177.59 208.4 200.68 168.4 293.07 168.4"/></g><g class="cls-17"><polygon class="cls-2" points="187.19 87.47 164.09 127.47 141 87.47 117.91 127.47 94.81 167.47 71.72 207.47 48.62 247.47 2.44 247.47 25.53 207.47 25.53 207.47 48.62 167.47 71.72 127.47 94.81 87.47 117.91 47.47 141 7.46 164.09 47.47 187.19 87.47"/><polygon class="cls-2" points="177.28 367.46 177.28 367.48 154.19 407.46 61.81 407.46 84.9 367.46 131.09 367.46 131.1 367.48 131.1 367.46 177.28 367.46"/><polygon class="cls-2" points="200.38 247.47 177.29 287.46 131.09 287.46 154.18 247.47 200.37 247.47 200.38 247.47"/><polygon class="cls-18" points="187.18 167.47 141 247.47 117.9 287.46 94.81 327.46 71.72 367.46 48.62 407.46 2.44 407.46 48.62 327.46 71.72 287.46 94.81 247.47 117.9 207.47 25.53 207.47 2.44 167.47 187.18 167.47"/><polygon class="cls-2" points="292.76 167.47 269.66 207.47 177.28 207.47 200.37 167.47 292.76 167.47"/></g><g class="cls-19"><polygon class="cls-2" points="186.88 86.53 163.78 126.53 140.69 86.53 117.6 126.53 94.5 166.53 71.41 206.53 48.31 246.53 2.13 246.53 25.22 206.54 25.22 206.53 48.31 166.53 71.41 126.53 94.5 86.53 117.6 46.53 140.69 6.53 163.78 46.53 186.88 86.53"/><polygon class="cls-2" points="176.98 366.53 176.98 366.54 153.89 406.53 61.51 406.53 84.6 366.53 130.79 366.53 130.8 366.54 130.8 366.53 176.98 366.53"/><polygon class="cls-2" points="200.08 246.54 176.99 286.53 130.79 286.53 153.88 246.53 200.07 246.53 200.08 246.54"/><polygon class="cls-20" points="186.88 166.53 140.7 246.53 117.6 286.53 94.51 326.53 71.42 366.53 48.32 406.53 2.14 406.53 48.32 326.53 71.42 286.53 94.51 246.53 117.6 206.53 25.23 206.53 2.14 166.53 186.88 166.53"/><polygon class="cls-2" points="292.46 166.53 269.36 206.53 176.98 206.53 200.07 166.53 292.46 166.53"/></g><g class="cls-21"><polygon class="cls-2" points="186.58 85.6 163.48 125.6 140.39 85.6 117.3 125.6 94.2 165.6 71.11 205.6 48.01 245.6 1.83 245.6 24.92 205.61 24.92 205.6 48.01 165.6 71.11 125.6 94.2 85.6 117.3 45.6 140.39 5.6 163.48 45.6 186.58 85.6"/><polygon class="cls-2" points="176.67 365.6 176.67 365.61 153.58 405.6 61.2 405.6 84.29 365.6 130.48 365.6 130.49 365.61 130.49 365.6 176.67 365.6"/><polygon class="cls-2" points="199.77 245.61 176.68 285.6 130.48 285.6 153.57 245.6 199.76 245.6 199.77 245.61"/><polygon class="cls-22" points="186.57 165.6 140.39 245.6 117.29 285.6 94.2 325.6 71.11 365.6 48.01 405.6 1.83 405.6 48.01 325.6 71.11 285.6 94.2 245.6 117.29 205.6 24.92 205.6 1.83 165.6 186.57 165.6"/><polygon class="cls-2" points="292.15 165.6 269.05 205.6 176.67 205.6 199.76 165.6 292.15 165.6"/></g><g class="cls-23"><polygon class="cls-2" points="186.28 84.67 163.18 124.67 140.09 84.67 117 124.67 93.89 164.67 70.81 204.67 47.7 244.67 1.52 244.67 24.61 204.68 24.61 204.67 47.7 164.67 70.81 124.67 93.89 84.67 117 44.67 140.09 4.67 163.18 44.67 186.28 84.67"/><polygon class="cls-2" points="176.37 364.67 176.37 364.68 153.28 404.67 60.9 404.67 83.99 364.67 130.18 364.67 130.19 364.68 130.19 364.67 176.37 364.67"/><polygon class="cls-2" points="199.47 244.68 176.38 284.67 130.18 284.67 153.27 244.67 199.46 244.67 199.47 244.68"/><polygon class="cls-24" points="186.27 164.67 140.09 244.67 116.99 284.67 93.9 324.67 70.81 364.67 47.71 404.67 1.53 404.67 47.71 324.67 70.81 284.67 93.9 244.67 116.99 204.67 24.62 204.67 1.53 164.67 186.27 164.67"/><polygon class="cls-2" points="291.85 164.67 268.75 204.67 176.37 204.67 199.46 164.67 291.85 164.67"/></g><g class="cls-25"><polygon class="cls-2" points="185.97 83.73 162.87 123.73 139.78 83.73 116.69 123.73 93.59 163.73 70.5 203.73 47.4 243.73 1.22 243.73 24.31 203.74 24.31 203.73 47.4 163.73 70.5 123.73 93.59 83.73 116.69 43.73 139.78 3.73 162.87 43.73 185.97 83.73"/><polygon class="cls-2" points="176.06 363.73 176.06 363.74 152.97 403.73 60.59 403.73 83.69 363.73 129.88 363.73 129.88 363.74 129.88 363.73 176.06 363.73"/><polygon class="cls-2" points="199.16 243.74 176.07 283.73 129.88 283.73 152.97 243.73 199.16 243.73 199.16 243.74"/><polygon class="cls-26" points="185.97 163.73 139.78 243.73 116.69 283.73 93.59 323.73 70.5 363.73 47.41 403.73 1.23 403.73 47.41 323.73 70.5 283.73 93.59 243.73 116.69 203.73 24.32 203.73 1.23 163.73 185.97 163.73"/><polygon class="cls-2" points="291.55 163.73 268.44 203.73 176.06 203.73 199.16 163.73 291.55 163.73"/></g><g class="cls-27"><polygon class="cls-2" points="185.66 82.8 162.56 122.8 139.47 82.8 116.39 122.8 93.28 162.8 70.19 202.8 47.09 242.8 0.92 242.8 24 202.81 24 202.8 47.09 162.8 70.19 122.8 93.28 82.8 116.39 42.8 139.47 2.8 162.56 42.8 185.66 82.8"/><polygon class="cls-2" points="175.76 362.8 175.76 362.81 152.67 402.8 60.29 402.8 83.38 362.8 129.57 362.8 129.58 362.81 129.58 362.8 175.76 362.8"/><polygon class="cls-2" points="198.86 242.81 175.77 282.8 129.57 282.8 152.66 242.8 198.85 242.8 198.86 242.81"/><polygon class="cls-28" points="185.66 162.8 139.48 242.8 116.38 282.8 93.29 322.8 70.2 362.8 47.1 402.8 0.92 402.8 47.1 322.8 70.2 282.8 93.29 242.8 116.38 202.8 24.01 202.8 0.92 162.8 185.66 162.8"/><polygon class="cls-2" points="291.24 162.8 268.14 202.8 175.76 202.8 198.85 162.8 291.24 162.8"/></g><g class="cls-29"><polygon class="cls-2" points="185.36 81.87 162.26 121.87 139.17 81.87 116.08 121.87 92.98 161.87 69.89 201.87 46.79 241.87 0.61 241.87 23.7 201.88 23.7 201.87 46.79 161.87 69.89 121.87 92.98 81.87 116.08 41.87 139.17 1.87 162.26 41.87 185.36 81.87"/><polygon class="cls-2" points="175.46 361.87 175.46 361.88 152.37 401.87 59.98 401.87 83.08 361.87 129.26 361.87 129.28 361.88 129.28 361.87 175.46 361.87"/><polygon class="cls-2" points="198.56 241.88 175.47 281.87 129.26 281.87 152.35 241.87 198.54 241.87 198.56 241.88"/><polygon class="cls-30" points="185.35 161.87 139.18 241.87 116.08 281.87 92.98 321.87 69.89 361.87 46.8 401.87 0.61 401.87 46.8 321.87 69.89 281.87 92.98 241.87 116.08 201.87 23.7 201.87 0.61 161.87 185.35 161.87"/><polygon class="cls-2" points="290.94 161.87 267.83 201.87 175.46 201.87 198.54 161.87 290.94 161.87"/></g><g class="cls-31"><polygon class="cls-2" points="185.06 80.93 161.96 120.93 138.87 80.93 115.78 120.93 92.67 160.93 69.58 200.93 46.48 240.93 0.3 240.93 23.39 200.94 23.39 200.93 46.48 160.93 69.58 120.93 92.67 80.93 115.78 40.93 138.87 0.93 161.96 40.93 185.06 80.93"/><polygon class="cls-2" points="175.15 360.93 175.15 360.94 152.06 400.93 59.68 400.93 82.77 360.93 128.96 360.93 128.97 360.94 128.97 360.93 175.15 360.93"/><polygon class="cls-2" points="198.25 240.94 175.16 280.93 128.96 280.93 152.05 240.93 198.24 240.93 198.25 240.94"/><polygon class="cls-32" points="185.05 160.93 138.87 240.93 115.77 280.93 92.68 320.93 69.59 360.93 46.49 400.93 0.31 400.93 46.49 320.93 69.59 280.93 92.68 240.93 115.77 200.93 23.4 200.93 0.31 160.93 185.05 160.93"/><polygon class="cls-2" points="290.63 160.93 267.53 200.93 175.15 200.93 198.24 160.93 290.63 160.93"/></g><polygon class="cls-2" points="184.75 80 161.65 120 138.56 80 115.47 120 92.37 160 69.28 200 46.18 240 0 240 23.09 200.01 23.09 200 46.18 160 69.28 120 92.37 80 115.47 40 138.56 0 161.65 40 184.75 80"/><polygon class="cls-2" points="174.84 360 174.84 360.01 151.75 400 59.38 400 82.47 360 128.66 360 128.66 360.01 128.66 360 174.84 360"/><polygon class="cls-2" points="197.94 240.01 174.85 280 128.66 280 151.75 240 197.94 240 197.94 240.01"/><polygon class="cls-33" points="184.75 160 138.56 240 115.47 280 92.38 320 69.28 360 46.19 400 0.01 400 46.19 320 69.28 280 92.38 240 115.47 200 23.09 200 0.01 160 184.75 160"/><polygon class="cls-2" points="290.32 160 267.23 200 174.84 200 197.94 160 290.32 160"/></g></g></svg>